# xmcd
#
# Track frame offsets:
# 150
# 17309
# 46547
# 67558
# 84651
# 97109
# 132360
# 154422
# 169286
# 188810
#
# Disc length: 2737 seconds
#
#
# Revision: 0
# Processed by: cddbd v1.5.2PL0 Copyright (c) Steve Scherf et al.
# Submitted via: FreeRIP 2.941 
#
DISCID=740aaf0a
DTITLE=Harvey Mandel - Cristo Redentor
DYEAR=1900
DGENRE=Blues
TTITLE0=Cristo Redentor
TTITLE1=Before Six
TTITLE2=The Lark
TTITLE3=Snake
TTITLE4=Long Wait
TTITLE5=Wade In The Water
TTITLE6=Lights Out
TTITLE7=Bradley's Barn
TTITLE8=You Can't Tell Me
TTITLE9=Nashville 1 AM
EXTD=
EXTT0=
EXTT1=
EXTT2=
EXTT3=
EXTT4=
EXTT5=
EXTT6=
EXTT7=
EXTT8=
EXTT9=
PLAYORDER=
